<?xml version="1.0" standalone="no"?><!DOCTYPE svg PUBLIC "-//W3C//DTD SVG 1.1//EN" "http://www.w3.org/Graphics/SVG/1.1/DTD/svg11.dtd"><svg t="1767525272250" class="icon" viewBox="0 0 1084 1024" version="1.1" xmlns="http://www.w3.org/2000/svg" p-id="10595" xmlns:xlink="http://www.w3.org/1999/xlink" width="211.71875" height="200"><path d="M728.847059 463.811765H319.247059c-30.117647 0-48.188235 24.094118-48.188235 48.188235v6.023529c0 30.117647 24.094118 48.188235 48.188235 48.188236h409.6c30.117647 0 48.188235-24.094118 48.188235-48.188236 0-30.117647-18.070588-54.211765-48.188235-54.211764z" p-id="10596" fill="#8a8a8a"></path><path d="M536.094118 24.094118C259.011765 24.094118 42.164706 246.964706 42.164706 518.023529s222.870588 493.929412 493.929412 493.929412c277.082353 0 493.929412-222.870588 493.929411-493.929412S807.152941 24.094118 536.094118 24.094118zM903.529412 367.435294z m-12.047059 307.2c-18.070588 48.188235-48.188235 84.329412-84.329412 120.470588l6.02353 6.02353-6.02353-6.02353c-36.141176 36.141176-78.305882 66.258824-120.470588 84.329412-48.188235 18.070588-96.376471 30.117647-150.588235 30.117647-54.211765 0-102.4-12.047059-150.588236-30.117647s-84.329412-48.188235-120.470588-84.329412c-36.141176-36.141176-66.258824-78.305882-84.329412-120.470588-18.070588-48.188235-30.117647-96.376471-30.117647-150.588235 0-54.211765 6.023529-102.4 30.117647-150.588235 18.070588-48.188235 48.188235-84.329412 84.329412-120.470589 36.141176-36.141176 78.305882-66.258824 120.470588-84.329411 48.188235-24.094118 96.376471-36.141176 150.588236-36.141177 54.211765 0 102.4 12.047059 150.588235 30.117647s84.329412 48.188235 120.470588 84.329412c36.141176 36.141176 66.258824 78.305882 84.329412 120.470588 18.070588 48.188235 30.117647 96.376471 30.117647 150.588235 0 54.211765-12.047059 108.423529-30.117647 156.611765l12.047059 6.02353-12.047059-6.02353z" p-id="10597" fill="#8a8a8a"></path></svg>