<?xml version="1.0" standalone="no"?><!DOCTYPE svg PUBLIC "-//W3C//DTD SVG 1.1//EN" "http://www.w3.org/Graphics/SVG/1.1/DTD/svg11.dtd"><svg t="1767365142924" class="icon" viewBox="0 0 1024 1024" version="1.1" xmlns="http://www.w3.org/2000/svg" p-id="1614" xmlns:xlink="http://www.w3.org/1999/xlink" width="200" height="200"><path d="M512 51.2C258.048 51.2 51.2 258.048 51.2 512s206.848 460.8 460.8 460.8 460.8-206.848 460.8-460.8S765.952 51.2 512 51.2z m0 880.64C280.576 931.84 92.16 743.424 92.16 512S280.576 92.16 512 92.16s419.84 188.416 419.84 419.84-188.416 419.84-419.84 419.84z m5.12-675.84C372.736 256 256 370.688 256 512c0 11.264-9.216 20.48-20.48 20.48s-20.48-9.216-20.48-20.48c0-163.84 135.168-296.96 302.08-296.96 51.2 0 102.4 13.312 148.48 37.888 10.24 5.12 13.312 17.408 8.192 27.648s-17.408 13.312-27.648 8.192c-39.936-21.504-84.992-32.768-129.024-32.768zM665.6 737.28c0 11.264-9.216 20.48-20.48 20.48H378.88c-11.264 0-20.48-9.216-20.48-20.48s9.216-20.48 20.48-20.48h266.24c11.264 0 20.48 9.216 20.48 20.48z m153.6-225.28c0 11.264-9.216 20.48-20.48 20.48s-20.48-9.216-20.48-20.48c0-41.984-10.24-82.944-30.72-118.784-5.12-10.24-2.048-22.528 8.192-27.648s22.528-2.048 27.648 8.192c23.552 40.96 35.84 89.088 35.84 138.24z m-78.848-179.2L568.32 488.448c3.072 7.168 5.12 15.36 5.12 23.552 0 33.792-27.648 61.44-61.44 61.44s-61.44-27.648-61.44-61.44 27.648-61.44 61.44-61.44c10.24 0 20.48 3.072 29.696 7.168l172.032-155.648c8.192-7.168 21.504-7.168 28.672 1.024 7.168 9.216 7.168 21.504-2.048 29.696z" p-id="1615" fill="#8a8a8a"></path></svg>