<?xml version="1.0" standalone="no"?><!DOCTYPE svg PUBLIC "-//W3C//DTD SVG 1.1//EN" "http://www.w3.org/Graphics/SVG/1.1/DTD/svg11.dtd"><svg t="1767429667132" class="icon" viewBox="0 0 1024 1024" version="1.1" xmlns="http://www.w3.org/2000/svg" p-id="8355" xmlns:xlink="http://www.w3.org/1999/xlink" width="200" height="200"><path d="M111.522802 561.554743h38.619203c36.451799 0 66.007312 29.555513 66.007312 66.007312v330.233596c0 36.451799-29.555513 66.007312-66.007312 66.007312H111.522802C75.071003 1023.802963 45.51549 994.24745 45.51549 957.795651V627.562055C45.51549 591.110256 75.071003 561.554743 111.522802 561.554743zM365.700212 374.369829H404.122378c36.451799 0 66.007312 29.555513 66.007312 66.007312v517.41851c0 36.451799-29.555513 66.007312-66.007312 66.007312h-38.619203c-36.451799 0-66.007312-29.555513-66.007312-66.007312V440.377141c0-36.451799 29.75255-66.007312 66.204349-66.007312zM619.680585 187.184914H658.299788c36.451799 0 66.007312 29.555513 66.007312 66.007312v704.603425c0 36.451799-29.555513 66.007312-66.007312 66.007312h-38.619203c-36.451799 0-66.007312-29.555513-66.007312-66.007312V253.192226c0-36.451799 29.555513-66.007312 66.007312-66.007312zM873.857995 0H912.477198c36.451799 0 66.007312 29.555513 66.007312 66.007312v891.788339c0 36.451799-29.555513 66.007312-66.007312 66.007312h-38.619203c-36.451799 0-66.007312-29.555513-66.007312-66.007312V66.007312C807.653646 29.555513 837.209159 0 873.857995 0z" p-id="8356" fill="#8a8a8a"></path></svg>